<?xml version="1.0" standalone="no"?>
<!DOCTYPE svg PUBLIC "-//W3C//DTD SVG 20010904//EN"
 "http://www.w3.org/TR/2001/REC-SVG-20010904/DTD/svg10.dtd">
<svg version="1.0" xmlns="http://www.w3.org/2000/svg"
 width="1000.000000pt" height="1000.000000pt" viewBox="0 0 1000.000000 1000.000000"
 preserveAspectRatio="xMidYMid meet">

<g transform="translate(0.000000,1000.000000) scale(0.100000,-0.100000)"
fill="#F32F9D" stroke="none">
<path d="M7150 9989 c-136 -13 -213 -50 -344 -169 -131 -119 -609 -779 -1104
-1525 -314 -472 -432 -626 -596 -772 -116 -103 -221 -164 -371 -214 -60 -20
-90 -23 -205 -23 -189 0 -284 27 -515 145 -60 31 -128 68 -150 83 -22 14 -47
31 -55 36 -53 33 -446 295 -450 300 -5 6 -402 269 -462 307 -21 12 -55 34 -75
47 -81 52 -327 187 -393 217 -25 11 -54 25 -65 30 -76 36 -288 50 -380 25
-128 -34 -194 -110 -229 -267 -69 -303 13 -708 299 -1479 287 -772 334 -927
335 -1086 0 -141 -45 -237 -156 -328 -49 -40 -243 -154 -455 -266 -9 -5 -65
-34 -125 -65 -60 -32 -131 -70 -159 -85 -27 -15 -95 -51 -149 -79 -470 -246
-894 -562 -1145 -856 -167 -195 -196 -247 -196 -360 0 -68 4 -89 29 -139 81
-165 306 -311 634 -411 83 -25 231 -34 552 -35 295 0 544 11 695 30 44 6 157
20 250 30 343 40 908 136 995 170 14 5 57 18 95 29 39 11 108 32 155 46 360
112 558 149 760 142 111 -3 148 -9 206 -29 111 -40 171 -84 246 -178 132 -167
191 -387 259 -975 28 -243 38 -300 120 -649 175 -744 257 -914 608 -1267 255
-256 347 -326 463 -355 118 -29 230 15 307 120 87 119 109 207 121 481 46
1008 55 1389 41 1690 -14 272 -8 383 30 570 41 204 150 431 260 543 128 130
315 224 512 257 251 41 219 40 922 19 460 -15 1044 57 1288 158 174 72 295
163 373 279 106 161 90 295 -53 430 -59 55 -137 108 -223 149 -36 17 -72 35
-81 40 -9 5 -93 39 -185 75 -93 37 -183 73 -201 81 -17 8 -34 14 -37 14 -3 0
-30 11 -60 25 -30 14 -57 25 -60 25 -3 0 -30 11 -60 25 -30 14 -57 25 -60 25
-3 0 -29 11 -58 24 -29 13 -87 38 -128 56 -41 18 -97 43 -125 55 -785 360
-918 440 -1103 668 -176 216 -272 469 -371 979 -66 338 -37 546 154 1104 237
690 283 842 319 1059 53 318 67 628 33 740 -36 115 -79 175 -162 227 -77 48
-191 68 -315 57z m-109 -1082 c49 -33 79 -82 79 -131 0 -62 -29 -101 -89 -121
-48 -16 -52 -16 -96 4 -72 32 -103 118 -71 195 8 19 24 44 35 55 29 29 97 28
142 -2z m-362 -673 c58 -38 76 -77 76 -164 0 -80 -12 -112 -59 -162 -32 -34
-93 -53 -140 -44 -145 27 -157 312 -16 388 42 23 86 17 139 -18z m-350 -769
c65 -33 110 -121 97 -188 -8 -44 -57 -112 -99 -137 -104 -64 -216 26 -217 173
0 112 45 167 137 167 30 0 67 -7 82 -15z m-3334 -166 c61 -53 79 -125 54 -214
-13 -45 -64 -101 -102 -111 -92 -23 -177 56 -177 163 0 58 36 141 75 171 43
34 105 30 150 -9z m754 -419 c153 -70 196 -285 81 -400 -96 -96 -248 -47 -314
100 -24 54 -28 72 -25 139 3 61 9 83 28 110 48 66 147 88 230 51z m2255 -337
c83 -59 103 -166 53 -277 -45 -98 -122 -156 -208 -156 -107 0 -169 108 -148
257 14 102 67 182 135 203 49 16 125 3 168 -27z m-1451 -125 c115 -58 190
-205 153 -302 -18 -48 -42 -73 -101 -107 -57 -33 -173 -33 -230 1 -133 78
-173 187 -112 305 62 122 174 162 290 103z m997 -880 c106 -37 172 -95 220
-193 82 -167 29 -365 -118 -441 -53 -27 -65 -29 -162 -29 -95 0 -111 3 -170
30 -152 69 -248 184 -249 301 -2 85 61 228 125 283 88 76 225 95 354 49z
m-1197 -247 c69 -30 101 -79 105 -162 5 -88 -17 -157 -68 -209 -85 -87 -251
-80 -354 16 -34 32 -76 118 -76 157 0 67 60 152 128 180 21 8 48 19 62 25 43
18 154 14 203 -7z m-827 -222 c43 -13 100 -70 114 -115 14 -40 7 -101 -15
-144 -22 -42 -102 -120 -140 -136 -39 -16 -112 -18 -148 -5 -14 5 -36 21 -49
34 -112 112 -98 268 29 343 70 41 128 47 209 23z m3332 -33 c56 -28 76 -49 97
-99 55 -131 -43 -297 -176 -297 -100 0 -231 104 -245 196 -7 49 11 111 45 152
62 73 187 95 279 48z m901 -261 c39 -20 71 -89 71 -153 0 -72 -25 -128 -73
-163 -63 -45 -118 -37 -181 26 -94 93 -88 232 11 284 46 24 132 27 172 6z
m-5001 -88 c60 -57 64 -158 12 -241 -49 -76 -117 -103 -181 -72 -116 57 -141
252 -41 321 33 23 45 26 109 23 63 -3 76 -7 101 -31z m5719 -58 c38 -14 82
-57 99 -98 29 -68 14 -165 -34 -219 -90 -101 -302 18 -302 171 0 53 40 119 85
142 35 17 112 20 152 4z m745 -110 c32 -14 68 -69 75 -113 8 -49 -14 -121 -47
-156 -85 -91 -240 34 -197 158 33 94 104 141 169 111z m-7086 -202 c65 -72 64
-152 -2 -236 -89 -115 -218 -121 -273 -13 -46 92 -34 170 39 243 52 52 70 59
145 54 45 -2 54 -7 91 -48z m3600 -182 c87 -63 133 -157 134 -271 0 -138 -71
-224 -186 -224 -124 0 -213 94 -222 236 -7 117 45 243 118 282 39 20 111 10
156 -23z m-4377 -97 c71 -57 86 -145 38 -216 -64 -91 -156 -82 -206 21 -36 75
-21 162 36 207 35 27 89 23 132 -12z m4457 -893 c130 -64 156 -249 55 -384
-35 -46 -107 -91 -147 -91 -72 0 -130 44 -164 123 -18 42 -22 64 -18 127 6
109 44 168 143 227 28 17 96 16 131 -2z m75 -1080 c31 -28 49 -76 49 -130 0
-95 -71 -165 -169 -165 -109 0 -166 79 -137 191 14 53 34 81 81 111 40 26 144
21 176 -7z"/>
</g>
</svg>
